<svg width="1080pt" height="1080pt" viewBox="0.00 0.00 1080.00 1080.00" xmlns="http://www.w3.org/2000/svg" xmlns:xlink="http://www.w3.org/1999/xlink">
<g id="graph0" class="graph" transform="scale(0.936482 0.936482) rotate(0) translate(4 1149.25)">
<title>UML_Diagram</title>
<polygon fill="white" stroke="none" points="-4,4 -4,-1149.25 1149.25,-1149.25 1149.25,4 -4,4"/>
<!-- Aluno -->
<g id="node1" class="node">
<title>Aluno</title>
<polygon fill="none" stroke="black" points="371.35,-440.05 371.35,-470.85 605.22,-470.85 605.22,-440.05 371.35,-440.05"/>
<text text-anchor="start" x="378.35" y="-452.25" font-family="Times,serif" font-weight="bold" font-size="14.00">Aluno</text>
<polygon fill="none" stroke="black" points="371.35,-409.25 371.35,-440.05 605.22,-440.05 605.22,-409.25 371.35,-409.25"/>
<text text-anchor="start" x="378.35" y="-420.45" font-family="Times,serif" font-size="14.00">nome: String</text>
<polygon fill="none" stroke="black" points="371.35,-378.45 371.35,-409.25 605.22,-409.25 605.22,-378.45 371.35,-378.45"/>
<text text-anchor="start" x="378.35" y="-389.65" font-family="Times,serif" font-size="14.00">matricula: String</text>
<polygon fill="none" stroke="black" points="371.35,-347.65 371.35,-378.45 605.22,-378.45 605.22,-347.65 371.35,-347.65"/>
<text text-anchor="start" x="378.35" y="-358.85" font-family="Times,serif" font-size="14.00">avaliacoes: Map&lt;Turma, Avaliacao&gt;</text>
<polygon fill="none" stroke="black" points="371.35,-316.85 371.35,-347.65 605.22,-347.65 605.22,-316.85 371.35,-316.85"/>
<text text-anchor="start" x="378.35" y="-328.05" font-family="Times,serif" font-size="14.00">frequencias: Map&lt;Turma, Frequencia&gt;</text>
<polygon fill="none" stroke="black" points="371.35,-286.05 371.35,-316.85 605.22,-316.85 605.22,-286.05 371.35,-286.05"/>
<text text-anchor="start" x="378.35" y="-297.25" font-family="Times,serif" font-size="14.00">turmasMatriculadas: [Turma]</text>
<polygon fill="none" stroke="black" points="371.35,-255.25 371.35,-286.05 605.22,-286.05 605.22,-255.25 371.35,-255.25"/>
<text text-anchor="start" x="378.35" y="-266.45" font-family="Times,serif" font-size="14.00">frequencia: double</text>
<polygon fill="none" stroke="black" points="371.35,-224.45 371.35,-255.25 605.22,-255.25 605.22,-224.45 371.35,-224.45"/>
<text text-anchor="start" x="378.35" y="-235.65" font-family="Times,serif" font-size="14.00">turmasAprovadas: [String]</text>
<polygon fill="none" stroke="black" points="371.35,-193.65 371.35,-224.45 605.22,-224.45 605.22,-193.65 371.35,-193.65"/>
<text text-anchor="start" x="378.35" y="-205.85" font-family="Times,serif" font-style="italic" font-size="14.00">-- Métodos --</text>
<polygon fill="none" stroke="black" points="371.35,-162.85 371.35,-193.65 605.22,-193.65 605.22,-162.85 371.35,-162.85"/>
<text text-anchor="start" x="378.35" y="-174.05" font-family="Times,serif" font-size="14.00">getNome()</text>
<polygon fill="none" stroke="black" points="371.35,-132.05 371.35,-162.85 605.22,-162.85 605.22,-132.05 371.35,-132.05"/>
<text text-anchor="start" x="378.35" y="-143.25" font-family="Times,serif" font-size="14.00">getMatricula()</text>
<polygon fill="none" stroke="black" points="371.35,-101.25 371.35,-132.05 605.22,-132.05 605.22,-101.25 371.35,-101.25"/>
<text text-anchor="start" x="378.35" y="-112.45" font-family="Times,serif" font-size="14.00">isAprovado(String)</text>
<polygon fill="none" stroke="black" points="371.35,-70.45 371.35,-101.25 605.22,-101.25 605.22,-70.45 371.35,-70.45"/>
<text text-anchor="start" x="378.35" y="-81.65" font-family="Times,serif" font-size="14.00">matricularEmTurma(Turma)</text>
<polygon fill="none" stroke="black" points="371.35,-39.65 371.35,-70.45 605.22,-70.45 605.22,-39.65 371.35,-39.65"/>
<text text-anchor="start" x="378.35" y="-50.85" font-family="Times,serif" font-size="14.00">removerTurmas(Turma)</text>
</g>
<!-- AlunoEspecial -->
<g id="node2" class="node">
<title>AlunoEspecial</title>
<polygon fill="none" stroke="black" points="8,-902.05 8,-932.85 154.57,-932.85 154.57,-902.05 8,-902.05"/>
<text text-anchor="start" x="38.11" y="-914.25" font-family="Times,serif" font-weight="bold" font-size="14.00">AlunoEspecial</text>
<polygon fill="none" stroke="black" points="8,-871.25 8,-902.05 154.57,-902.05 154.57,-871.25 8,-871.25"/>
<text text-anchor="start" x="15" y="-882.45" font-family="Times,serif" font-size="14.00">quantidadeMaterias: int</text>
<polygon fill="none" stroke="black" points="8,-840.45 8,-871.25 154.57,-871.25 154.57,-840.45 8,-840.45"/>
<text text-anchor="start" x="15" y="-852.65" font-family="Times,serif" font-style="italic" font-size="14.00">-- Métodos --</text>
<polygon fill="none" stroke="black" points="8,-809.65 8,-840.45 154.57,-840.45 154.57,-809.65 8,-809.65"/>
<text text-anchor="start" x="15" y="-820.85" font-family="Times,serif" font-size="14.00">matricularEmTurma()</text>
</g>
<!-- Aluno&#45;&gt;AlunoEspecial -->
<g id="edge1" class="edge">
<title>Aluno-&gt;AlunoEspecial</title>
<path fill="none" stroke="black" d="M363.37,-401.04C307.32,-469.76 242.63,-554.56 192.28,-636.25 160.92,-687.14 132.2,-748.28 111.83,-795.3"/>
<polygon fill="none" stroke="black" points="108.68,-793.76 107.95,-804.33 115.11,-796.52 108.68,-793.76"/>
</g>
<!-- Avaliacao -->
<g id="node3" class="node">
<title>Avaliacao</title>
<polygon fill="none" stroke="black" points="229.04,-994.45 229.04,-1025.25 351.52,-1025.25 351.52,-994.45 229.04,-994.45"/>
<text text-anchor="start" x="260.73" y="-1006.65" font-family="Times,serif" font-weight="bold" font-size="14.00">Avaliacao</text>
<polygon fill="none" stroke="black" points="229.04,-963.65 229.04,-994.45 351.52,-994.45 351.52,-963.65 229.04,-963.65"/>
<text text-anchor="start" x="236.04" y="-974.85" font-family="Times,serif" font-size="14.00">nota1: double</text>
<polygon fill="none" stroke="black" points="229.04,-932.85 229.04,-963.65 351.52,-963.65 351.52,-932.85 229.04,-932.85"/>
<text text-anchor="start" x="236.04" y="-944.05" font-family="Times,serif" font-size="14.00">nota2: double</text>
<polygon fill="none" stroke="black" points="229.04,-902.05 229.04,-932.85 351.52,-932.85 351.52,-902.05 229.04,-902.05"/>
<text text-anchor="start" x="236.04" y="-913.25" font-family="Times,serif" font-size="14.00">nota3: double</text>
<polygon fill="none" stroke="black" points="229.04,-871.25 229.04,-902.05 351.52,-902.05 351.52,-871.25 229.04,-871.25"/>
<text text-anchor="start" x="236.04" y="-882.45" font-family="Times,serif" font-size="14.00">mediaFinal: double</text>
<polygon fill="none" stroke="black" points="229.04,-840.45 229.04,-871.25 351.52,-871.25 351.52,-840.45 229.04,-840.45"/>
<text text-anchor="start" x="236.04" y="-852.65" font-family="Times,serif" font-style="italic" font-size="14.00">-- Métodos --</text>
<polygon fill="none" stroke="black" points="229.04,-809.65 229.04,-840.45 351.52,-840.45 351.52,-809.65 229.04,-809.65"/>
<text text-anchor="start" x="236.04" y="-820.85" font-family="Times,serif" font-size="14.00">calcularMedia()</text>
<polygon fill="none" stroke="black" points="229.04,-778.85 229.04,-809.65 351.52,-809.65 351.52,-778.85 229.04,-778.85"/>
<text text-anchor="start" x="236.04" y="-790.05" font-family="Times,serif" font-size="14.00">getMediaFinal()</text>
<polygon fill="none" stroke="black" points="229.04,-748.05 229.04,-778.85 351.52,-778.85 351.52,-748.05 229.04,-748.05"/>
<text text-anchor="start" x="236.04" y="-759.25" font-family="Times,serif" font-size="14.00">calculoMedia()</text>
<polygon fill="none" stroke="black" points="229.04,-717.25 229.04,-748.05 351.52,-748.05 351.52,-717.25 229.04,-717.25"/>
<text text-anchor="start" x="236.04" y="-728.45" font-family="Times,serif" font-size="14.00">aprovado(double)</text>
</g>
<!-- Aluno&#45;&gt;Avaliacao -->
<g id="edge4" class="edge">
<title>Aluno-&gt;Avaliacao</title>
<path fill="none" stroke="black" d="M417.92,-474.45C393.66,-549.69 366.89,-632.71 344.15,-703.2"/>
<polygon fill="black" stroke="black" points="341.2,-712.35 339.99,-701.45 342.37,-708.75 344.27,-702.83 344.27,-702.83 344.27,-702.83 342.37,-708.75 348.56,-704.21 341.2,-712.35"/>
<text text-anchor="middle" x="421.4" y="-550.05" font-family="Times,serif" font-size="14.00">avaliacoes</text>
</g>
<!-- Frequencia -->
<g id="node4" class="node">
<title>Frequencia</title>
<polygon fill="none" stroke="black" points="425.55,-948.25 425.55,-979.05 583.02,-979.05 583.02,-948.25 425.55,-948.25"/>
<text text-anchor="start" x="470.46" y="-960.45" font-family="Times,serif" font-weight="bold" font-size="14.00">Frequencia</text>
<polygon fill="none" stroke="black" points="425.55,-917.45 425.55,-948.25 583.02,-948.25 583.02,-917.45 425.55,-917.45"/>
<text text-anchor="start" x="432.55" y="-928.65" font-family="Times,serif" font-size="14.00">numeroTotalDeAulas: int</text>
<polygon fill="none" stroke="black" points="425.55,-886.65 425.55,-917.45 583.02,-917.45 583.02,-886.65 425.55,-886.65"/>
<text text-anchor="start" x="432.55" y="-897.85" font-family="Times,serif" font-size="14.00">presencas: int</text>
<polygon fill="none" stroke="black" points="425.55,-855.85 425.55,-886.65 583.02,-886.65 583.02,-855.85 425.55,-855.85"/>
<text text-anchor="start" x="432.55" y="-868.05" font-family="Times,serif" font-style="italic" font-size="14.00">-- Métodos --</text>
<polygon fill="none" stroke="black" points="425.55,-825.05 425.55,-855.85 583.02,-855.85 583.02,-825.05 425.55,-825.05"/>
<text text-anchor="start" x="432.55" y="-836.25" font-family="Times,serif" font-size="14.00">registrarPresenca()</text>
<polygon fill="none" stroke="black" points="425.55,-794.25 425.55,-825.05 583.02,-825.05 583.02,-794.25 425.55,-794.25"/>
<text text-anchor="start" x="432.55" y="-805.45" font-family="Times,serif" font-size="14.00">aprovadoPorFrequencia()</text>
<polygon fill="none" stroke="black" points="425.55,-763.45 425.55,-794.25 583.02,-794.25 583.02,-763.45 425.55,-763.45"/>
<text text-anchor="start" x="432.55" y="-774.65" font-family="Times,serif" font-size="14.00">calcularFrequencia()</text>
</g>
<!-- Aluno&#45;&gt;Frequencia -->
<g id="edge5" class="edge">
<title>Aluno-&gt;Frequencia</title>
<path fill="none" stroke="black" d="M481.17,-474.85C480.59,-498.81 480.11,-522.84 479.77,-545.85 478.78,-613.11 484.02,-688 489.9,-748.87"/>
<polygon fill="black" stroke="black" points="490.85,-758.46 485.39,-748.95 490.48,-754.7 489.87,-748.51 489.87,-748.51 489.87,-748.51 490.48,-754.7 494.34,-748.07 490.85,-758.46"/>
<text text-anchor="middle" x="512.03" y="-550.05" font-family="Times,serif" font-size="14.00">frequencias</text>
</g>
<!-- Turma -->
<g id="node6" class="node">
<title>Turma</title>
<polygon fill="none" stroke="black" points="687.22,-1071.45 687.22,-1102.25 863.35,-1102.25 863.35,-1071.45 687.22,-1071.45"/>
<text text-anchor="start" x="754.28" y="-1083.65" font-family="Times,serif" font-weight="bold" font-size="14.00">Turma</text>
<polygon fill="none" stroke="black" points="687.22,-1040.65 687.22,-1071.45 863.35,-1071.45 863.35,-1040.65 687.22,-1040.65"/>
<text text-anchor="start" x="694.22" y="-1051.85" font-family="Times,serif" font-size="14.00">professor: String</text>
<polygon fill="none" stroke="black" points="687.22,-1009.85 687.22,-1040.65 863.35,-1040.65 863.35,-1009.85 687.22,-1009.85"/>
<text text-anchor="start" x="694.22" y="-1021.05" font-family="Times,serif" font-size="14.00">semestre: String</text>
<polygon fill="none" stroke="black" points="687.22,-979.05 687.22,-1009.85 863.35,-1009.85 863.35,-979.05 687.22,-979.05"/>
<text text-anchor="start" x="694.22" y="-990.25" font-family="Times,serif" font-size="14.00">formaAvaliacao: String</text>
<polygon fill="none" stroke="black" points="687.22,-948.25 687.22,-979.05 863.35,-979.05 863.35,-948.25 687.22,-948.25"/>
<text text-anchor="start" x="694.22" y="-959.45" font-family="Times,serif" font-size="14.00">sala: String</text>
<polygon fill="none" stroke="black" points="687.22,-917.45 687.22,-948.25 863.35,-948.25 863.35,-917.45 687.22,-917.45"/>
<text text-anchor="start" x="694.22" y="-928.65" font-family="Times,serif" font-size="14.00">horario: String</text>
<polygon fill="none" stroke="black" points="687.22,-886.65 687.22,-917.45 863.35,-917.45 863.35,-886.65 687.22,-886.65"/>
<text text-anchor="start" x="694.22" y="-897.85" font-family="Times,serif" font-size="14.00">presencial: boolean</text>
<polygon fill="none" stroke="black" points="687.22,-855.85 687.22,-886.65 863.35,-886.65 863.35,-855.85 687.22,-855.85"/>
<text text-anchor="start" x="694.22" y="-867.05" font-family="Times,serif" font-size="14.00">capacidadeMaxima: int</text>
<polygon fill="none" stroke="black" points="687.22,-825.05 687.22,-855.85 863.35,-855.85 863.35,-825.05 687.22,-825.05"/>
<text text-anchor="start" x="694.22" y="-836.25" font-family="Times,serif" font-size="14.00">alunosMatriculados: [Aluno]</text>
<polygon fill="none" stroke="black" points="687.22,-794.25 687.22,-825.05 863.35,-825.05 863.35,-794.25 687.22,-794.25"/>
<text text-anchor="start" x="694.22" y="-805.45" font-family="Times,serif" font-size="14.00">codigoDaTurma: String</text>
<polygon fill="none" stroke="black" points="687.22,-763.45 687.22,-794.25 863.35,-794.25 863.35,-763.45 687.22,-763.45"/>
<text text-anchor="start" x="694.22" y="-774.65" font-family="Times,serif" font-size="14.00">disciplina: Disciplina</text>
<polygon fill="none" stroke="black" points="687.22,-732.65 687.22,-763.45 863.35,-763.45 863.35,-732.65 687.22,-732.65"/>
<text text-anchor="start" x="694.22" y="-744.85" font-family="Times,serif" font-style="italic" font-size="14.00">-- Métodos --</text>
<polygon fill="none" stroke="black" points="687.22,-701.85 687.22,-732.65 863.35,-732.65 863.35,-701.85 687.22,-701.85"/>
<text text-anchor="start" x="694.22" y="-713.05" font-family="Times,serif" font-size="14.00">matricularAluno(Aluno)</text>
<polygon fill="none" stroke="black" points="687.22,-671.05 687.22,-701.85 863.35,-701.85 863.35,-671.05 687.22,-671.05"/>
<text text-anchor="start" x="694.22" y="-682.25" font-family="Times,serif" font-size="14.00">getAlunosMatriculados()</text>
<polygon fill="none" stroke="black" points="687.22,-640.25 687.22,-671.05 863.35,-671.05 863.35,-640.25 687.22,-640.25"/>
<text text-anchor="start" x="694.22" y="-651.45" font-family="Times,serif" font-size="14.00">getProfessor()</text>
</g>
<!-- Aluno&#45;&gt;Turma -->
<g id="edge6" class="edge">
<title>Aluno-&gt;Turma</title>
<path fill="none" stroke="black" d="M565.48,-474.71C577.38,-504.56 590.07,-534.57 603.1,-562.65 624.22,-608.17 649.47,-656.08 674.04,-700.18"/>
<polygon fill="black" stroke="black" points="678.84,-708.76 670.03,-702.23 676.99,-705.46 673.96,-700.03 673.96,-700.03 673.96,-700.03 676.99,-705.46 677.88,-697.84 678.84,-708.76"/>
<text text-anchor="middle" x="658.69" y="-550.05" font-family="Times,serif" font-size="14.00">turmasMatriculadas</text>
</g>
<!-- Disciplina -->
<g id="node5" class="node">
<title>Disciplina</title>
<polygon fill="none" stroke="black" points="995.32,-994.45 995.32,-1025.25 1137.25,-1025.25 1137.25,-994.45 995.32,-994.45"/>
<text text-anchor="start" x="1036.33" y="-1006.65" font-family="Times,serif" font-weight="bold" font-size="14.00">Disciplina</text>
<polygon fill="none" stroke="black" points="995.32,-963.65 995.32,-994.45 1137.25,-994.45 1137.25,-963.65 995.32,-963.65"/>
<text text-anchor="start" x="1002.32" y="-974.85" font-family="Times,serif" font-size="14.00">nome: String</text>
<polygon fill="none" stroke="black" points="995.32,-932.85 995.32,-963.65 1137.25,-963.65 1137.25,-932.85 995.32,-932.85"/>
<text text-anchor="start" x="1002.32" y="-944.05" font-family="Times,serif" font-size="14.00">ementa: String</text>
<polygon fill="none" stroke="black" points="995.32,-902.05 995.32,-932.85 1137.25,-932.85 1137.25,-902.05 995.32,-902.05"/>
<text text-anchor="start" x="1002.32" y="-913.25" font-family="Times,serif" font-size="14.00">codigo: String</text>
<polygon fill="none" stroke="black" points="995.32,-871.25 995.32,-902.05 1137.25,-902.05 1137.25,-871.25 995.32,-871.25"/>
<text text-anchor="start" x="1002.32" y="-882.45" font-family="Times,serif" font-size="14.00">preRequisitos: [String]</text>
<polygon fill="none" stroke="black" points="995.32,-840.45 995.32,-871.25 1137.25,-871.25 1137.25,-840.45 995.32,-840.45"/>
<text text-anchor="start" x="1002.32" y="-851.65" font-family="Times,serif" font-size="14.00">turmas: [Turma]</text>
<polygon fill="none" stroke="black" points="995.32,-809.65 995.32,-840.45 1137.25,-840.45 1137.25,-809.65 995.32,-809.65"/>
<text text-anchor="start" x="1002.32" y="-821.85" font-family="Times,serif" font-style="italic" font-size="14.00">-- Métodos --</text>
<polygon fill="none" stroke="black" points="995.32,-778.85 995.32,-809.65 1137.25,-809.65 1137.25,-778.85 995.32,-778.85"/>
<text text-anchor="start" x="1002.32" y="-790.05" font-family="Times,serif" font-size="14.00">getNome()</text>
<polygon fill="none" stroke="black" points="995.32,-748.05 995.32,-778.85 1137.25,-778.85 1137.25,-748.05 995.32,-748.05"/>
<text text-anchor="start" x="1002.32" y="-759.25" font-family="Times,serif" font-size="14.00">getCodigo()</text>
<polygon fill="none" stroke="black" points="995.32,-717.25 995.32,-748.05 1137.25,-748.05 1137.25,-717.25 995.32,-717.25"/>
<text text-anchor="start" x="1002.32" y="-728.45" font-family="Times,serif" font-size="14.00">getPreRequisitos()</text>
</g>
<!-- Disciplina&#45;&gt;Turma -->
<g id="edge7" class="edge">
<title>Disciplina-&gt;Turma</title>
<path fill="none" stroke="black" d="M987.56,-886.34C974.52,-888.3 961.11,-889.99 948.39,-891.05 926.98,-892.84 904.14,-892.11 882.29,-890.12"/>
<polygon fill="black" stroke="black" points="872.53,-889.14 882.93,-885.67 876.29,-889.52 882.48,-890.14 882.48,-890.14 882.48,-890.14 876.29,-889.52 882.03,-894.62 872.53,-889.14"/>
<text text-anchor="middle" x="929.33" y="-878.45" font-family="Times,serif" font-size="14.00">turmas</text>
</g>
<!-- Turma&#45;&gt;Aluno -->
<g id="edge2" class="edge">
<title>Turma-&gt;Aluno</title>
<path fill="none" stroke="black" d="M762.65,-636.49C754.94,-604.78 743.9,-573.63 728.28,-545.85 703.99,-502.65 675.97,-511.21 642.28,-474.85 634.81,-466.79 627.41,-458.34 620.12,-449.66"/>
<polygon fill="black" stroke="black" points="613.94,-442.2 623.79,-447.04 616.35,-445.12 620.32,-449.91 620.32,-449.91 620.32,-449.91 616.35,-445.12 616.85,-452.78 613.94,-442.2"/>
<text text-anchor="middle" x="791.61" y="-550.05" font-family="Times,serif" font-size="14.00">alunosMatriculados</text>
</g>
<!-- Turma&#45;&gt;Disciplina -->
<g id="edge3" class="edge">
<title>Turma-&gt;Disciplina</title>
<path fill="none" stroke="black" d="M870.97,-871.25C904.91,-871.25 942.95,-871.25 976.38,-871.25"/>
<polygon fill="black" stroke="black" points="986.31,-871.25 976.31,-875.75 982.53,-871.25 976.31,-871.25 976.31,-871.25 976.31,-871.25 982.53,-871.25 976.31,-866.75 986.31,-871.25"/>
<text text-anchor="middle" x="929.33" y="-855.65" font-family="Times,serif" font-size="14.00">disciplina</text>
</g>
<!-- Main -->
<g id="node7" class="node">
<title>Main</title>
<polygon fill="none" stroke="black" points="679.21,-363.05 679.21,-393.85 811.36,-393.85 811.36,-363.05 679.21,-363.05"/>
<text text-anchor="start" x="729.34" y="-375.25" font-family="Times,serif" font-weight="bold" font-size="14.00">Main</text>
<polygon fill="none" stroke="black" points="679.21,-332.25 679.21,-363.05 811.36,-363.05 811.36,-332.25 679.21,-332.25"/>
<text text-anchor="start" x="686.21" y="-344.45" font-family="Times,serif" font-style="italic" font-size="14.00">-- Métodos --</text>
<polygon fill="none" stroke="black" points="679.21,-301.45 679.21,-332.25 811.36,-332.25 811.36,-301.45 679.21,-301.45"/>
<text text-anchor="start" x="686.21" y="-312.65" font-family="Times,serif" font-size="14.00">carregarDisciplinas()</text>
<polygon fill="none" stroke="black" points="679.21,-270.65 679.21,-301.45 811.36,-301.45 811.36,-270.65 679.21,-270.65"/>
<text text-anchor="start" x="686.21" y="-281.85" font-family="Times,serif" font-size="14.00">carregarTurmas()</text>
<polygon fill="none" stroke="black" points="679.21,-239.85 679.21,-270.65 811.36,-270.65 811.36,-239.85 679.21,-239.85"/>
<text text-anchor="start" x="686.21" y="-251.05" font-family="Times,serif" font-size="14.00">carregarAlunos()</text>
<polygon fill="none" stroke="black" points="679.21,-209.05 679.21,-239.85 811.36,-239.85 811.36,-209.05 679.21,-209.05"/>
<text text-anchor="start" x="686.21" y="-220.25" font-family="Times,serif" font-size="14.00">menuInicial()</text>
<polygon fill="none" stroke="black" points="679.21,-178.25 679.21,-209.05 811.36,-209.05 811.36,-178.25 679.21,-178.25"/>
<text text-anchor="start" x="686.21" y="-189.45" font-family="Times,serif" font-size="14.00">modoAluno()</text>
<polygon fill="none" stroke="black" points="679.21,-147.45 679.21,-178.25 811.36,-178.25 811.36,-147.45 679.21,-147.45"/>
<text text-anchor="start" x="686.21" y="-158.65" font-family="Times,serif" font-size="14.00">modoDisciplina()</text>
<polygon fill="none" stroke="black" points="679.21,-116.65 679.21,-147.45 811.36,-147.45 811.36,-116.65 679.21,-116.65"/>
<text text-anchor="start" x="686.21" y="-127.85" font-family="Times,serif" font-size="14.00">modoAvaliacao()</text>
</g>
</g>
</svg>